<?xml version="1.0" encoding="utf-8"?>
<!-- Generator: Adobe Illustrator 24.1.0, SVG Export Plug-In . SVG Version: 6.00 Build 0)  -->
<svg version="1.1" id="Layer_1" xmlns="http://www.w3.org/2000/svg" xmlns:xlink="http://www.w3.org/1999/xlink" x="0px" y="0px"
	 viewBox="0 0 128 128" style="enable-background:new 0 0 128 128;" xml:space="preserve">
<style type="text/css">
	.st0{fill:#FFFDE7;}
	.st1{fill:#6200EE;}
	.st2{opacity:0.2;}
	.st3{fill:#EEEEEE;}
	.st4{fill:#283593;}
	.st5{fill:#3700B3;}
</style>
<rect x="47.9" y="47.7" class="st0" width="32.2" height="6"/>
<path class="st1" d="M41.4,19.6L45.8,4h5l-4.4,16.5c-0.3,1.6-1.8,2.7-3.2,2.3C41.8,22.4,41.1,21.1,41.4,19.6z"/>
<path class="st1" d="M86.3,19.6L82.2,4h-4.9l4.1,16.5c0.3,1.6,1.8,2.7,3.2,2.3C85.9,22.4,86.6,21.1,86.3,19.6z"/>
<g class="st2">
	<path class="st3" d="M49.4,5l-4.1,15.2c0,0,0,0,0,0c-0.2,0.9-0.9,1.6-1.7,1.6c-0.1,0-0.2,0-0.3,0c-0.7-0.2-1.2-1-1-1.9L46.5,5
		L49.4,5 M50.7,4h-5l-4.4,15.6c-0.3,1.5,0.5,2.8,1.7,3.1c0.2,0,0.4,0.1,0.5,0.1c1.2,0,2.4-1,2.7-2.4L50.7,4z"/>
</g>
<g class="st2">
	<path class="st3" d="M81.4,5l3.9,14.8c0.2,0.9-0.2,1.8-1,2c-0.1,0-0.2,0-0.3,0c-0.8,0-1.5-0.7-1.7-1.6L78.5,5L81.4,5 M82.2,4h-4.9
		l4.1,16.5c0.3,1.4,1.4,2.4,2.7,2.4c0.2,0,0.4,0,0.6-0.1c1.3-0.3,2-1.7,1.7-3.1C86.3,19.6,82.2,4,82.2,4z"/>
</g>
<path class="st1" d="M113.8,107.4L78.8,48.2l7.4-25.9c1-2.8-1.1-5.9-4.1-5.8c-2.3,0-18.2,11.4-18.2,11.4S48,16.4,45.6,16.5
	c-2.8,0.1-4.8,3.1-3.9,5.8l7.3,25.9l-34.9,59.2c-0.7,0.9-0.6,2.1,0.3,2.8c6.2,5.1,27.3,13.8,49.7,13.8c22.4,0,43.3-8.6,49.4-13.7
	C114.4,109.5,114.5,108.3,113.8,107.4L113.8,107.4z"/>
<g class="st2">
	<path class="st4" d="M58.9,114.8l5.1-68.9v0.2l5,68.7c0.4,5.2-1.8,9-4.8,9.2C61.2,124.2,58.7,119.9,58.9,114.8z"/>
</g>
<g class="st2">
	<path class="st4" d="M27.9,107.6l29.9-60.3l-0.1,0.2l-20.5,63.9c-1.5,4.8-5,7.5-7.9,6.5C26.6,116.9,25.9,112.2,27.9,107.6z"/>
</g>
<g class="st2">
	<path class="st4" d="M100.8,107.6L70.8,47.3l0.1,0.2l20.5,63.9c1.5,4.8,5,7.5,7.9,6.5C102.1,116.9,102.8,112.2,100.8,107.6z"/>
</g>
<polygon class="st5" points="78.8,48.2 49.1,48.2 46.7,39.7 81.2,39.7 "/>
<g class="st2">
	<path class="st3" d="M82.3,19.5c0.4,0.1,0.7,0.4,0.8,0.5c0.3,0.4,0.4,0.9,0.2,1.3c0,0,0,0.1-0.1,0.1l-7.4,25.9
		c-0.2,0.8-0.1,1.6,0.3,2.3l34.8,58.8C104.9,113,85.6,121,64.1,121c-21.6,0-41-8-47.1-12.5l34.7-58.7c0.4-0.7,0.5-1.5,0.3-2.3
		l-7.3-25.9c0,0,0-0.1,0-0.1c-0.1-0.4-0.1-0.9,0.2-1.3c0.1-0.2,0.3-0.4,0.7-0.5c2.2,0.8,10.2,6.1,16.7,10.8c0.5,0.4,1.1,0.6,1.8,0.6
		s1.2-0.2,1.8-0.6C72.2,25.6,80.2,20.3,82.3,19.5 M82.1,16.5L82.1,16.5c-2.3,0-18.2,11.4-18.2,11.4S48.1,16.5,45.6,16.5h0
		c-2.8,0.1-4.8,3.1-3.9,5.8l7.3,25.9l-34.9,59.2c-0.7,0.9-0.6,2.1,0.3,2.8c6.2,5.1,27.3,13.8,49.7,13.8c22.4,0,43.3-8.6,49.4-13.7
		c0.8-0.7,1-1.9,0.3-2.8L78.8,48.2l7.4-25.9C87.1,19.5,85,16.5,82.1,16.5z"/>
</g>
</svg>
